<?xml version="1.0" encoding="UTF-8" standalone="no"?>
<!-- Created with Inkscape (http://www.inkscape.org/) -->

<svg
   xmlns:dc="http://purl.org/dc/elements/1.1/"
   xmlns:cc="http://creativecommons.org/ns#"
   xmlns:rdf="http://www.w3.org/1999/02/22-rdf-syntax-ns#"
   xmlns:svg="http://www.w3.org/2000/svg"
   xmlns="http://www.w3.org/2000/svg"
   xmlns:sodipodi="http://sodipodi.sourceforge.net/DTD/sodipodi-0.dtd"
   xmlns:inkscape="http://www.inkscape.org/namespaces/inkscape"
   width="12"
   height="12"
   id="svg2993"
   version="1.1"
   inkscape:version="0.48.2 r9819"
   inkscape:export-filename="/home/invader/.config/awesome/icons/mail2.png"
   inkscape:export-xdpi="90"
   inkscape:export-ydpi="90"
   sodipodi:docname="icons.svg">
  <defs
     id="defs2995" />
  <sodipodi:namedview
     id="base"
     pagecolor="#ffffff"
     bordercolor="#666666"
     borderopacity="1.0"
     inkscape:pageopacity="0.0"
     inkscape:pageshadow="2"
     inkscape:zoom="64"
     inkscape:cx="4.1817457"
     inkscape:cy="5.2349321"
     inkscape:current-layer="layer8"
     showgrid="true"
     inkscape:grid-bbox="true"
     inkscape:document-units="px"
     inkscape:window-width="1918"
     inkscape:window-height="1064"
     inkscape:window-x="0"
     inkscape:window-y="14"
     inkscape:window-maximized="0"
     showguides="true"
     inkscape:guide-bbox="true">
    <sodipodi:guide
       orientation="1,0"
       position="2,8.671875"
       id="guide3973" />
    <sodipodi:guide
       orientation="0,1"
       position="3.9804688,9.0039062"
       id="guide3975" />
    <sodipodi:guide
       orientation="0,1"
       position="3,3.0039062"
       id="guide3977" />
    <sodipodi:guide
       orientation="1,0"
       position="10.027344,2.6875"
       id="guide3979" />
    <sodipodi:guide
       orientation="0,1"
       position="5.347495,8.3747959"
       id="guide4026" />
  </sodipodi:namedview>
  <metadata
     id="metadata2998">
    <rdf:RDF>
      <cc:Work
         rdf:about="">
        <dc:format>image/svg+xml</dc:format>
        <dc:type
           rdf:resource="http://purl.org/dc/dcmitype/StillImage" />
        <dc:title></dc:title>
      </cc:Work>
    </rdf:RDF>
  </metadata>
  <g
     inkscape:groupmode="layer"
     id="layer9"
     inkscape:label="Mail"
     style="display:inline">
    <path
       style="fill:#babdb6;fill-opacity:1;stroke:none"
       d="m 2.0098707,7.0072554 0,-1.9921875 0.4921875,0 0.4921875,0 0,0.5 0,0.5 0.5,0 0.5,0 0,0.5 0,0.5 0.5,0 0.5,0 0,0.5 0,0.5 1.0078125,0 1.0078125,0 0,-0.5 0,-0.5 0.5,0 0.5,0 0,-0.5 0,-0.5 0.5,0 0.5,0 0,-0.5 0,-0.5 0.4921875,0 0.4921875,0 0,1.9921875 0,1.9921875 -3.9921875,0 -3.9921875,0 0,-1.9921875 z"
       id="path4767"
       inkscape:connector-curvature="0" />
    <path
       style="fill:#babdb6;fill-opacity:1;stroke:none"
       d="m 5.0098707,6.4994429 0,-0.5 -0.5,0 -0.5,0 0,-0.5 0,-0.5 -0.5,0 -0.5,0 0,-0.5 0,-0.5 -0.5,0 -0.5,0 0,-0.4921875 0,-0.4921875 3.9921875,0 3.9921878,0 0,0.4921875 0,0.4921875 -0.5,0 -0.5,0 0,0.5 0,0.5 -0.5,0 -0.5000003,0 0,0.5 0,0.5 -0.5,0 -0.5,0 0,0.5 0,0.5 -0.9921875,0 -0.9921875,0 0,-0.5 z"
       id="path4769"
       inkscape:connector-curvature="0" />
  </g>
  <g
     inkscape:groupmode="layer"
     id="layer4"
     inkscape:label="Memory"
     style="display:none">
    <path
       style="fill:#babdb6;fill-opacity:1;stroke:none"
       d="m 2.5078125,6.0041304 0,-1.9921875 3.4921875,0 3.4921875,0 0,1.9921875 0,1.9921875 -3.4921875,0 -3.4921875,0 0,-1.9921875 z"
       id="path4365"
       inkscape:connector-curvature="0" />
    <path
       style="fill:#babdb6;fill-opacity:1;stroke:none"
       d="m 2.5078125,2.5039063 0,-0.4921875 0.4921875,0 0.4921875,0 0,0.4921875 0,0.4921875 -0.4921875,0 -0.4921875,0 0,-0.4921875 z"
       id="path4367"
       inkscape:connector-curvature="0" />
    <path
       style="fill:#babdb6;fill-opacity:1;stroke:none"
       d="m 4.5078125,2.5041304 0,-0.4921875 0.4921875,0 0.4921875,0 0,0.4921875 0,0.4921875 -0.4921875,0 -0.4921875,0 0,-0.4921875 z"
       id="path4369"
       inkscape:connector-curvature="0" />
    <path
       style="fill:#babdb6;fill-opacity:1;stroke:none"
       d="m 6.5078125,2.5041304 0,-0.4921875 0.4921875,0 0.4921875,0 0,0.4921875 0,0.4921875 -0.4921875,0 -0.4921875,0 0,-0.4921875 z"
       id="path4371"
       inkscape:connector-curvature="0" />
    <path
       style="fill:#babdb6;fill-opacity:1;stroke:none"
       d="m 8.5078125,2.5039063 0,-0.4921875 0.4921875,0 0.4921875,0 0,0.4921875 0,0.4921875 -0.4921875,0 -0.4921875,0 0,-0.4921875 z"
       id="path4373"
       inkscape:connector-curvature="0" />
    <path
       style="fill:#babdb6;fill-opacity:1;stroke:none"
       d="m 8.5078125,9.4882813 0,-0.4921875 0.4921875,0 0.4921875,0 0,0.4921875 0,0.4921875 -0.4921875,0 -0.4921875,0 0,-0.4921875 z"
       id="path4375"
       inkscape:connector-curvature="0" />
    <path
       style="fill:#babdb6;fill-opacity:1;stroke:none"
       d="m 6.5078125,9.5041304 0,-0.4921875 0.4921875,0 0.4921875,0 0,0.4921875 0,0.4921875 -0.4921875,0 -0.4921875,0 0,-0.4921875 z"
       id="path4377"
       inkscape:connector-curvature="0" />
    <path
       style="fill:#babdb6;fill-opacity:1;stroke:none"
       d="m 4.5078125,9.5041304 0,-0.4921875 0.4921875,0 0.4921875,0 0,0.4921875 0,0.4921875 -0.4921875,0 -0.4921875,0 0,-0.4921875 z"
       id="path4379"
       inkscape:connector-curvature="0" />
    <path
       style="fill:#babdb6;fill-opacity:1;stroke:none"
       d="m 2.5078125,9.5041304 0,-0.4921875 0.4921875,0 0.4921875,0 0,0.4921875 0,0.4921875 -0.4921875,0 -0.4921875,0 0,-0.4921875 z"
       id="path4381"
       inkscape:connector-curvature="0" />
  </g>
  <g
     inkscape:groupmode="layer"
     id="layer5"
     inkscape:label="Volume"
     style="display:none">
    <path
       style="fill:#babdb6;fill-opacity:1;stroke:none"
       d="m 5.0098707,9.4994429 0,-0.5 -0.5,0 -0.5,0 0,-0.5 0,-0.5 -1,0 -1,0 0,-1.9921875 0,-1.9921875 1,0 1,0 0,-0.5 0,-0.5 0.5,0 0.5,0 0,-0.5 0,-0.5 0.4921875,0 0.4921875,0 0,3.9921875 0,3.9921875 -0.4921875,0 -0.4921875,0 0,-0.5 z"
       id="path4467"
       inkscape:connector-curvature="0" />
    <path
       style="fill:#000000;fill-opacity:0;stroke:none"
       d="m 5.0098707,9.4994429 0,-0.5 -0.5,0 -0.5,0 0,-0.5 0,-0.5 -1,0 -1,0 0,-1.9921875 0,-1.9921875 1,0 1,0 0,-0.5 0,-0.5 0.5,0 0.5,0 0,-0.5 0,-0.5 0.4921875,0 0.4921875,0 0,3.9921875 0,3.9921875 -0.4921875,0 -0.4921875,0 0,-0.5 z"
       id="path4465"
       inkscape:connector-curvature="0" />
    <path
       style="fill:#babdb6;fill-opacity:1;stroke:none"
       d="m 7.0098707,6.0072554 0,-0.9921875 0.4921875,0 0.4921875,0 0,0.9921875 0,0.9921875 -0.4921875,0 -0.4921875,0 0,-0.9921875 z"
       id="path4469"
       inkscape:connector-curvature="0" />
    <path
       style="fill:#babdb6;fill-opacity:1;stroke:none"
       d="m 9.0098707,6.0072554 0,-1.9921875 0.4921875,0 0.4921875,0 0,1.9921875 0,1.9921875 -0.4921875,0 -0.4921875,0 0,-1.9921875 z"
       id="path4471"
       inkscape:connector-curvature="0" />
    <path
       style="fill:#babdb6;fill-opacity:1;stroke:none"
       d="m 8.0098707,8.5072554 0,-0.4921875 0.4921875,0 0.4921875,0 0,0.4921875 0,0.4921875 -0.4921875,0 -0.4921875,0 0,-0.4921875 z"
       id="path4473"
       inkscape:connector-curvature="0" />
    <path
       style="fill:#babdb6;fill-opacity:1;stroke:none"
       d="m 8.0098707,3.5072554 0,-0.4921875 0.4921875,0 0.4921875,0 0,0.4921875 0,0.4921875 -0.4921875,0 -0.4921875,0 0,-0.4921875 z"
       id="path4475"
       inkscape:connector-curvature="0" />
  </g>
  <g
     inkscape:groupmode="layer"
     id="layer6"
     inkscape:label="CPU"
     style="display:none">
    <path
       style="fill:#babdb6;fill-opacity:1;stroke:none"
       d="m 4.0098707,6.0072554 0,-1.9921875 1.9921875,0 1.9921875,0 0,1.9921875 0,1.9921875 -1.9921875,0 -1.9921875,0 0,-1.9921875 z"
       id="path4545"
       inkscape:connector-curvature="0" />
    <path
       style="fill:#babdb6;fill-opacity:1;stroke:none"
       d="m 2.0098707,6.0072554 0,-0.9921875 0.4921875,0 0.4921875,0 0,0.9921875 0,0.9921875 -0.4921875,0 -0.4921875,0 0,-0.9921875 z"
       id="path4543"
       inkscape:connector-curvature="0" />
    <path
       style="fill:#babdb6;fill-opacity:1;stroke:none"
       d="m 2.0098707,3.0072554 0,-0.9921875 0.9921875,0 0.9921875,0 0,0.4921875 0,0.4921875 -0.5,0 -0.5,0 0,0.5 0,0.5 -0.4921875,0 -0.4921875,0 0,-0.9921875 z"
       id="path4547"
       inkscape:connector-curvature="0" />
    <path
       style="fill:#babdb6;fill-opacity:1;stroke:none"
       d="m 5.0098707,2.5072554 0,-0.4921875 0.9921875,0 0.9921875,0 0,0.4921875 0,0.4921875 -0.9921875,0 -0.9921875,0 0,-0.4921875 z"
       id="path4549"
       inkscape:connector-curvature="0" />
    <path
       style="fill:#babdb6;fill-opacity:1;stroke:none"
       d="m 9.0098707,3.4994429 0,-0.5 -0.5,0 -0.5,0 0,-0.4921875 0,-0.4921875 0.9921875,0 0.9921875,0 0,0.9921875 0,0.9921875 -0.4921875,0 -0.4921875,0 0,-0.5 z"
       id="path4551"
       inkscape:connector-curvature="0" />
    <path
       style="fill:#babdb6;fill-opacity:1;stroke:none"
       d="m 9.0098707,6.0072554 0,-0.9921875 0.4921875,0 0.4921875,0 0,0.9921875 0,0.9921875 -0.4921875,0 -0.4921875,0 0,-0.9921875 z"
       id="path4553"
       inkscape:connector-curvature="0" />
    <path
       style="fill:#babdb6;fill-opacity:1;stroke:none"
       d="m 8.0098707,9.5072554 0,-0.4921875 0.5,0 0.5,0 0,-0.5 0,-0.5 0.4921875,0 0.4921875,0 0,0.9921875 0,0.9921875 -0.9921875,0 -0.9921875,0 0,-0.4921875 z"
       id="path4555"
       inkscape:connector-curvature="0" />
    <path
       style="fill:#babdb6;fill-opacity:1;stroke:none"
       d="m 5.0098707,9.5072554 0,-0.4921875 0.9921875,0 0.9921875,0 0,0.4921875 0,0.4921875 -0.9921875,0 -0.9921875,0 0,-0.4921875 z"
       id="path4557"
       inkscape:connector-curvature="0" />
    <path
       style="fill:#babdb6;fill-opacity:1;stroke:none"
       d="m 2.0098707,9.0072554 0,-0.9921875 0.4921875,0 0.4921875,0 0,0.5 0,0.5 0.5,0 0.5,0 0,0.4921875 0,0.4921875 -0.9921875,0 -0.9921875,0 0,-0.9921875 z"
       id="path4559"
       inkscape:connector-curvature="0" />
  </g>
  <g
     inkscape:groupmode="layer"
     id="layer7"
     inkscape:label="Battery"
     style="display:none">
    <path
       style="fill:#babdb6;fill-opacity:1;stroke:none"
       d="m 3.0098707,6.5072554 0,-3.4921875 1,0 1,0 0,-0.5 0,-0.5 0.9921875,0 0.9921875,0 0,0.5 0,0.5 1,0 1,0 0,3.4921875 0,3.4921875 -2.9921875,0 -2.9921875,0 0,-3.4921875 z m 5,0 0,-2.5078125 -2.0078125,0 -2.0078125,0 0,2.5078125 0,2.5078125 2.0078125,0 2.0078125,0 0,-2.5078125 z"
       id="path4629"
       inkscape:connector-curvature="0" />
    <path
       style="fill:#babdb6;fill-opacity:1;stroke:none"
       d="m 5.0098707,6.5072554 0,-1.4921875 0.9921875,0 0.9921875,0 0,1.4921875 0,1.4921875 -0.9921875,0 -0.9921875,0 0,-1.4921875 z"
       id="path4627"
       inkscape:connector-curvature="0" />
  </g>
  <g
     inkscape:groupmode="layer"
     id="layer8"
     inkscape:label="Disk"
     style="display:none">
    <path
       style="fill:#babdb6;fill-opacity:1;stroke:none"
       d="m 3.0098707,9.5072554 0,-0.4921875 0.5,0 0.5,0 0,-1.5 0,-1.5 1.9921875,0 1.9921875,0 0,1.5 0,1.5 0.5078123,0 0.507813,0 0,-3.0078125 0,-3.0078125 -3.0078128,0 -3.0078125,0 0,3 0,3 -0.4921875,0 -0.4921875,0 0,-3.4921875 0,-3.4921875 3.9921875,0 3.9921878,0 0,3.9921875 0,3.9921875 -3.4921878,0 -3.4921875,0 0,-0.4921875 z m 3,-1.5 0,-1.0078125 -0.5078125,0 -0.5078125,0 0,1.0078125 0,1.0078125 0.5078125,0 0.5078125,0 0,-1.0078125 z"
       id="path4697"
       inkscape:connector-curvature="0" />
  </g>
  <g
     inkscape:groupmode="layer"
     id="layer11"
     inkscape:label="Down"
     style="display:none">
    <path
       style="fill:#e9b96e;fill-opacity:1;stroke:none"
       d="m 5.0098707,9.4994429 0,-0.5 -0.5,0 -0.5,0 0,-0.5 0,-0.5 -0.5,0 -0.5,0 0,-0.5 0,-0.5 -0.5,0 -0.5,0 0,-0.4921875 0,-0.4921875 1,0 1,0 0,-1.5 0,-1.5 0.5,0 0.5,0 0,-0.5 0,-0.5 1.9921875,0 1.9921875,0 0,0.4921875 0,0.4921875 -0.5,0 -0.5,0 0,1.5078125 0,1.5078125 1,0 1,0 0,0.4921875 0,0.4921875 -0.5,0 -0.5,0 0,0.5 0,0.5 -0.5,0 -0.5,0 0,0.5 0,0.5 -0.5,0 -0.5,0 0,0.5 0,0.5 -0.9921875,0 -0.9921875,0 0,-0.5 z"
       id="path4975"
       inkscape:connector-curvature="0" />
  </g>
  <g
     inkscape:groupmode="layer"
     id="layer12"
     inkscape:label="Up"
     style="display:none">
    <path
       style="fill:#73d216;fill-opacity:1;stroke:none"
       d="m 3.0254957,9.5072554 0,-0.4921875 0.5,0 0.5,0 0,-1.5078125 0,-1.5078125 -1,0 -1,0 0,-0.4921875 0,-0.4921875 0.5,0 0.5,0 0,-0.5 0,-0.5 0.5,0 0.5,0 0,-0.5 0,-0.5 0.5,0 0.5,0 0,-0.5 0,-0.5 0.9921875,0 0.9921875,0 0,0.5 0,0.5 0.5,0 0.5,0 0,0.5 0,0.5 0.5,0 0.5,0 0,0.5 0,0.5 0.5,0 0.5000003,0 0,0.4921875 0,0.4921875 -1.0000003,0 -1,0 0,1.5 0,1.5 -0.5,0 -0.5,0 0,0.5 0,0.5 -1.9921875,0 -1.9921875,0 0,-0.4921875 z"
       id="path5045"
       inkscape:connector-curvature="0"
       inkscape:export-filename="/home/invader/.config/awesome/icons/path5045.png"
       inkscape:export-xdpi="90"
       inkscape:export-ydpi="90" />
  </g>
  <g
     inkscape:groupmode="layer"
     id="layer13"
     inkscape:label="Calendar"
     style="display:none">
    <path
       style="fill:#babdb6;fill-opacity:1;stroke:none"
       d="m 1.0098707,6.0072554 0,-3.9921875 0.4921875,0 0.4921875,0 0,3.5 0,3.5 3.5078125,0 3.5078125,0 0,-3.5 0,-3.5 0.4921875,0 0.4921875,0 0,3.9921875 0,3.9921875 -4.4921875,0 -4.4921875,0 0,-3.9921875 z"
       id="path6397"
       inkscape:connector-curvature="0" />
    <path
       style="fill:#babdb6;fill-opacity:1;stroke:none"
       d="m 7.0098707,7.5072554 0,-0.4921875 0.4921875,0 0.4921875,0 0,0.4921875 0,0.4921875 -0.4921875,0 -0.4921875,0 0,-0.4921875 z"
       id="path6401"
       inkscape:connector-curvature="0" />
    <path
       style="fill:#babdb6;fill-opacity:1;stroke:none"
       d="m 7.0098707,5.5072554 0,-0.4921875 0.4921875,0 0.4921875,0 0,0.4921875 0,0.4921875 -0.4921875,0 -0.4921875,0 0,-0.4921875 z"
       id="path6403"
       inkscape:connector-curvature="0" />
    <path
       style="fill:#babdb6;fill-opacity:1;stroke:none"
       d="m 5.0098707,5.5072554 0,-0.4921875 0.4921875,0 0.4921875,0 0,0.4921875 0,0.4921875 -0.4921875,0 -0.4921875,0 0,-0.4921875 z"
       id="path6405"
       inkscape:connector-curvature="0" />
    <path
       style="fill:#babdb6;fill-opacity:1;stroke:none"
       d="m 3.0098707,5.5072554 0,-0.4921875 0.4921875,0 0.4921875,0 0,0.4921875 0,0.4921875 -0.4921875,0 -0.4921875,0 0,-0.4921875 z"
       id="path6407"
       inkscape:connector-curvature="0" />
    <path
       style="fill:#babdb6;fill-opacity:1;stroke:none"
       d="m 3.0098707,7.5072554 0,-0.4921875 0.4921875,0 0.4921875,0 0,0.4921875 0,0.4921875 -0.4921875,0 -0.4921875,0 0,-0.4921875 z"
       id="path6409"
       inkscape:connector-curvature="0" />
    <path
       style="fill:#babdb6;fill-opacity:1;stroke:none"
       d="m 5.0098707,7.5072554 0,-0.4921875 0.4921875,0 0.4921875,0 0,0.4921875 0,0.4921875 -0.4921875,0 -0.4921875,0 0,-0.4921875 z"
       id="path6411"
       inkscape:connector-curvature="0" />
    <path
       style="fill:#babdb6;fill-opacity:1;stroke:none"
       d="m 5.0098707,2.5072554 0,-0.4921875 0.4921875,0 0.4921875,0 0,0.4921875 0,0.4921875 -0.4921875,0 -0.4921875,0 0,-0.4921875 z"
       id="path6413"
       inkscape:connector-curvature="0" />
    <path
       style="fill:#babdb6;fill-opacity:1;stroke:none"
       d="m 4.0098707,1.5072554 0,-0.4921875 0.4921875,0 0.4921875,0 0,0.4921875 0,0.4921875 -0.4921875,0 -0.4921875,0 0,-0.4921875 z"
       id="path6415"
       inkscape:connector-curvature="0" />
    <path
       style="fill:#babdb6;fill-opacity:1;stroke:none"
       d="m 3.0098707,2.5072554 0,-0.4921875 0.4921875,0 0.4921875,0 0,0.4921875 0,0.4921875 -0.4921875,0 -0.4921875,0 0,-0.4921875 z"
       id="path6419"
       inkscape:connector-curvature="0" />
    <path
       style="fill:#babdb6;fill-opacity:1;stroke:none"
       d="m 2.0098707,1.5072554 0,-0.4921875 0.4921875,0 0.4921875,0 0,0.4921875 0,0.4921875 -0.4921875,0 -0.4921875,0 0,-0.4921875 z"
       id="path6421"
       inkscape:connector-curvature="0" />
    <path
       style="fill:#babdb6;fill-opacity:1;stroke:none"
       d="m 6.0098707,1.5072554 0,-0.4921875 0.4921875,0 0.4921875,0 0,0.4921875 0,0.4921875 -0.4921875,0 -0.4921875,0 0,-0.4921875 z"
       id="path6423"
       inkscape:connector-curvature="0" />
    <path
       style="fill:#babdb6;fill-opacity:1;stroke:none"
       d="m 7.0098707,2.5072554 0,-0.4921875 0.4921875,0 0.4921875,0 0,0.4921875 0,0.4921875 -0.4921875,0 -0.4921875,0 0,-0.4921875 z"
       id="path6425"
       inkscape:connector-curvature="0" />
    <path
       style="fill:#babdb6;fill-opacity:1;stroke:none"
       d="m 8.009871,1.5072554 0,-0.4921875 0.492187,0 0.492188,0 0,0.4921875 0,0.4921875 -0.492188,0 -0.492187,0 0,-0.4921875 z"
       id="path6427"
       inkscape:connector-curvature="0" />
  </g>
</svg>
