<?xml version="1.0" encoding="UTF-8" standalone="no"?>
<!-- Created with Inkscape (http://www.inkscape.org/) -->

<svg
   xmlns:dc="http://purl.org/dc/elements/1.1/"
   xmlns:cc="http://creativecommons.org/ns#"
   xmlns:rdf="http://www.w3.org/1999/02/22-rdf-syntax-ns#"
   xmlns:svg="http://www.w3.org/2000/svg"
   xmlns="http://www.w3.org/2000/svg"
   xmlns:sodipodi="http://sodipodi.sourceforge.net/DTD/sodipodi-0.dtd"
   xmlns:inkscape="http://www.inkscape.org/namespaces/inkscape"
   width="12"
   height="12"
   id="svg2"
   version="1.1"
   inkscape:version="0.48.2 r9819"
   sodipodi:docname="layouts.svg"
   inkscape:export-filename="/home/invader/.config/awesome/tango-theme/icons/layouts/tiletop.png"
   inkscape:export-xdpi="90"
   inkscape:export-ydpi="90">
  <defs
     id="defs4" />
  <sodipodi:namedview
     id="base"
     pagecolor="#ffffff"
     bordercolor="#666666"
     borderopacity="1.0"
     inkscape:pageopacity="0.0"
     inkscape:pageshadow="2"
     inkscape:zoom="63.356767"
     inkscape:cx="6.6682008"
     inkscape:cy="3.7406859"
     inkscape:document-units="px"
     inkscape:current-layer="layer11"
     showgrid="false"
     inkscape:window-width="1918"
     inkscape:window-height="1064"
     inkscape:window-x="0"
     inkscape:window-y="14"
     inkscape:window-maximized="0" />
  <metadata
     id="metadata7">
    <rdf:RDF>
      <cc:Work
         rdf:about="">
        <dc:format>image/svg+xml</dc:format>
        <dc:type
           rdf:resource="http://purl.org/dc/dcmitype/StillImage" />
        <dc:title></dc:title>
      </cc:Work>
    </rdf:RDF>
  </metadata>
  <g
     inkscape:label="dwindle"
     inkscape:groupmode="layer"
     id="layer1"
     transform="translate(0,-1040.3622)"
     style="display:none">
    <path
       style="fill:#babdb6;fill-opacity:1;stroke:none"
       d="m 4.9718446,1044.8115 0,-2.4859 1.9887378,0 1.988738,0 0,2.4859 0,2.4859 -1.988738,0 -1.9887378,0 0,-2.4859 z"
       id="path3834"
       inkscape:connector-curvature="0" />
    <path
       style="fill:#babdb6;fill-opacity:1;stroke:none"
       d="m 0,1046.8002 0,-4.4746 1.9887378,0 1.9887378,0 0,4.4746 0,4.4747 -1.9887378,0 -1.9887378,0 0,-4.4747 z"
       id="path4543"
       inkscape:connector-curvature="0" />
    <path
       style="fill:#babdb6;fill-opacity:1;stroke:none"
       d="m 4.9718446,1049.7833 0,-1.4915 0.4971844,0 0.4971845,0 0,1.4915 0,1.4916 -0.4971845,0 -0.4971844,0 0,-1.4916 z"
       id="path4545"
       inkscape:connector-curvature="0" />
    <path
       style="fill:#babdb6;fill-opacity:1;stroke:none"
       d="m 6.9605824,1050.7777 0,-0.4972 0.994369,0 0.994369,0 0,0.4972 0,0.4972 -0.994369,0 -0.994369,0 0,-0.4972 z"
       id="path4547"
       inkscape:connector-curvature="0" />
    <path
       style="fill:#babdb6;fill-opacity:1;stroke:none"
       d="m 6.9605824,1048.789 0,-0.4972 0.994369,0 0.994369,0 0,0.4972 0,0.4971 -0.994369,0 -0.994369,0 0,-0.4971 z"
       id="path4549"
       inkscape:connector-curvature="0" />
  </g>
  <g
     inkscape:groupmode="layer"
     id="layer2"
     inkscape:label="fairh"
     style="display:none">
    <path
       style="fill:#babdb6;fill-opacity:1;stroke:none"
       d="m 0,4.9464696 0,-2.9831068 0.9943689,0 0.9943689,0 0,2.9831068 0,2.9831067 -0.9943689,0 -0.9943689,0 0,-2.9831067 z"
       id="path4646"
       inkscape:connector-curvature="0" />
    <path
       style="fill:#babdb6;fill-opacity:1;stroke:none"
       d="m 2.9831067,4.9464696 0,-2.9831068 1.4915534,0 1.4915534,0 0,2.9831068 0,2.9831067 -1.4915534,0 -1.4915534,0 0,-2.9831067 z"
       id="path4648"
       inkscape:connector-curvature="0" />
    <path
       style="fill:#babdb6;fill-opacity:1;stroke:none"
       d="m 0,9.9183142 0,-0.994369 1.9887378,0 1.9887378,0 0,0.994369 0,0.9943688 -1.9887378,0 -1.9887378,0 0,-0.9943688 z"
       id="path4650"
       inkscape:connector-curvature="0" />
    <path
       style="fill:#babdb6;fill-opacity:1;stroke:none"
       d="m 4.9718446,9.9183142 0,-0.994369 1.9887378,0 1.988738,0 0,0.994369 0,0.9943688 -1.988738,0 -1.9887378,0 0,-0.9943688 z"
       id="path4652"
       inkscape:connector-curvature="0" />
    <path
       style="fill:#babdb6;fill-opacity:1;stroke:none"
       d="m 6.9605824,4.9464696 0,-2.9831068 0.994369,0 0.994369,0 0,2.9831068 0,2.9831067 -0.994369,0 -0.994369,0 0,-2.9831067 z"
       id="path4654"
       inkscape:connector-curvature="0" />
  </g>
  <g
     inkscape:groupmode="layer"
     id="layer3"
     inkscape:label="fairv"
     style="display:none">
    <path
       style="fill:#babdb6;fill-opacity:1;stroke:none"
       d="m 0,6.438023 0,-1.4915534 2.9831067,0 2.9831068,0 0,1.4915534 0,1.4915533 -2.9831068,0 L 0,7.9295763 0,6.438023 z"
       id="path4738"
       inkscape:connector-curvature="0" />
    <path
       style="fill:#babdb6;fill-opacity:1;stroke:none"
       d="m 0,9.9183142 0,-0.994369 2.9831067,0 2.9831068,0 0,0.994369 0,0.9943688 -2.9831068,0 -2.9831067,0 0,-0.9943688 z"
       id="path4740"
       inkscape:connector-curvature="0" />
    <path
       style="fill:#babdb6;fill-opacity:1;stroke:none"
       d="m 0,2.9577317 0,-0.9943689 2.9831067,0 2.9831068,0 0,0.9943689 0,0.994369 -2.9831068,0 -2.9831067,0 0,-0.994369 z"
       id="path4742"
       inkscape:connector-curvature="0" />
    <path
       style="fill:#babdb6;fill-opacity:1;stroke:none"
       d="m 6.9605824,3.9521007 0,-1.9887379 0.9943689,0 0.9943691,0 0,1.9887379 0,1.9887378 -0.9943691,0 -0.9943689,0 0,-1.9887378 z"
       id="path4744"
       inkscape:connector-curvature="0" />
    <path
       style="fill:#babdb6;fill-opacity:1;stroke:none"
       d="m 6.9605824,8.9239452 0,-1.9887378 0.9943689,0 0.9943691,0 0,1.9887378 0,1.9887378 -0.9943691,0 -0.9943689,0 0,-1.9887378 z"
       id="path4746"
       inkscape:connector-curvature="0" />
  </g>
  <g
     inkscape:groupmode="layer"
     id="layer4"
     inkscape:label="floating"
     style="display:none">
    <path
       style="fill:#babdb6;fill-opacity:1;stroke:none"
       d="m 0,8.9239452 0,-1.9887378 1.9887378,0 1.9887378,0 0,1.9887378 0,1.9887378 -1.9887378,0 -1.9887378,0 0,-1.9887378 z"
       id="path4811"
       inkscape:connector-curvature="0" />
    <path
       style="fill:#babdb6;fill-opacity:1;stroke:none"
       d="m 4.9718446,7.4323919 0,-1.4915534 -1.4915534,0 -1.4915534,0 0,-1.9887378 0,-1.9887379 3.4802912,0 3.4802914,0 0,3.4802912 0,3.4802912 -1.988738,0 -1.9887378,0 0,-1.4915533 z"
       id="path4813"
       inkscape:connector-curvature="0" />
  </g>
  <g
     inkscape:groupmode="layer"
     id="layer5"
     inkscape:label="fullscreen"
     style="display:none">
    <path
       style="fill:#babdb6;fill-opacity:1;stroke:none"
       d="m 0,6.438023 0,-4.4746602 4.4746601,0 4.4746603,0 0,4.4746602 0,4.47466 -4.4746603,0 -4.4746601,0 0,-4.47466 z m 2.9831067,1.9887378 0,-1.4915534 1.9887379,0 1.9887378,0 0,-0.4971844 0,-0.4971845 -1.9887378,0 -1.9887379,0 0,-0.9943689 0,-0.9943689 1.9887379,0 1.9887378,0 0,-0.4971845 0,-0.4971845 -2.4859223,0 -2.4859223,0 0,3.4802913 0,3.4802912 0.4971845,0 0.4971844,0 0,-1.4915534 z"
       id="path4878"
       inkscape:connector-curvature="0" />
  </g>
  <g
     inkscape:groupmode="layer"
     id="layer6"
     inkscape:label="magnifier"
     style="display:none">
    <path
       style="fill:#babdb6;fill-opacity:1;stroke:none"
       d="m 0,6.438023 0,-4.4746602 4.4746601,0 4.4746601,0 0,4.4746602 0,4.47466 -4.4746601,0 -4.4746601,0 0,-4.47466 z m 7.9549513,0 0,-2.4859223 -3.4802912,0 -3.48029119,0 0,2.4859223 0,2.4859222 3.48029119,0 3.4802912,0 0,-2.4859222 z"
       id="path4943"
       inkscape:connector-curvature="0" />
    <path
       style="fill:#babdb6;fill-opacity:1;stroke:none"
       d="m 1.9887378,6.438023 0,-1.4915534 2.4859223,0 2.4859223,0 0,1.4915534 0,1.4915533 -2.4859223,0 -2.4859223,0 0,-1.4915533 z"
       id="path4945"
       inkscape:connector-curvature="0" />
  </g>
  <g
     inkscape:groupmode="layer"
     id="layer7"
     inkscape:label="max"
     style="display:none">
    <path
       style="fill:#babdb6;fill-opacity:1;stroke:none"
       d="m 3.9774756,5.443654 0,-0.4971844 -0.4971844,0 -0.4971845,0 0,-0.4971845 0,-0.4971844 -0.4971844,0 -0.4971845,0 0,-0.4971845 0,-0.4971845 -0.4971845,0 -0.49718439,0 0,-0.4971844 0,-0.4971845 3.48029119,0 3.4802912,0 0,0.4971845 0,0.4971844 -0.4971845,0 -0.4971844,0 0,0.4971845 0,0.4971845 -0.4971845,0 -0.4971844,0 0,0.4971844 0,0.4971845 -0.4971845,0 -0.4971844,0 0,0.4971844 0,0.4971845 -0.4971845,0 -0.4971845,0 0,-0.4971845 z"
       id="path5012"
       inkscape:connector-curvature="0" />
    <path
       style="fill:#babdb6;fill-opacity:1;stroke:none"
       d="m 0,6.438023 0,-3.4802913 0.49718445,0 0.49718446,0 0,0.4971845 0,0.4971845 0.49718439,0 0.4971845,0 0,0.4971844 0,0.4971845 0.4971845,0 0.4971844,0 0,0.4971844 0,0.4971845 0.4971845,0 0.4971844,0 0,0.4971845 0,0.4971844 -0.4971844,0 -0.4971845,0 0,0.4971845 0,0.4971844 -0.4971844,0 -0.4971845,0 0,0.4971845 0,0.4971844 -0.4971845,0 -0.49718439,0 0,0.4971845 0,0.4971845 -0.49718446,0 L 0,9.9183142 0,6.438023 z"
       id="path5010"
       inkscape:connector-curvature="0" />
    <path
       style="fill:#babdb6;fill-opacity:1;stroke:none"
       d="m 7.9549513,9.4211297 0,-0.4971845 -0.4971845,0 -0.4971844,0 0,-0.4971844 0,-0.4971845 -0.4971845,0 -0.4971844,0 0,-0.4971844 0,-0.4971845 -0.4971845,0 -0.4971844,0 0,-0.4971844 0,-0.4971845 0.4971844,0 0.4971845,0 0,-0.4971845 0,-0.4971844 0.4971844,0 0.4971845,0 0,-0.4971845 0,-0.4971844 0.4971844,0 0.4971845,0 0,-0.4971845 0,-0.4971845 0.4971845,0 0.4971844,0 0,3.4802913 0,3.4802912 -0.4971844,0 -0.4971845,0 0,-0.4971845 z"
       id="path5014"
       inkscape:connector-curvature="0" />
    <path
       style="fill:#babdb6;fill-opacity:1;stroke:none"
       d="m 0.99436891,10.415499 0,-0.4971848 0.49718439,0 0.4971845,0 0,-0.4971845 0,-0.4971845 0.4971845,0 0.4971844,0 0,-0.4971844 0,-0.4971845 0.4971845,0 0.4971844,0 0,-0.4971844 0,-0.4971845 0.4971845,0 0.4971845,0 0,0.4971845 0,0.4971844 0.4971844,0 0.4971845,0 0,0.4971845 0,0.4971844 0.4971844,0 0.4971845,0 0,0.4971845 0,0.4971845 0.4971844,0 0.4971845,0 0,0.4971848 0,0.497184 -3.4802912,0 -3.48029119,0 0,-0.497184 z"
       id="path5016"
       inkscape:connector-curvature="0" />
  </g>
  <g
     inkscape:groupmode="layer"
     id="layer8"
     inkscape:label="spiral"
     style="display:none">
    <path
       style="fill:#babdb6;fill-opacity:1;stroke:none"
       d="m 0,6.438023 0,-4.4746602 1.9887378,0 1.9887378,0 0,4.4746602 0,4.47466 -1.9887378,0 -1.9887378,0 0,-4.47466 z"
       id="path5081"
       inkscape:connector-curvature="0" />
    <path
       style="fill:#babdb6;fill-opacity:1;stroke:none"
       d="m 4.9718446,4.4492851 0,-2.4859223 1.9887378,0 1.9887378,0 0,2.4859223 0,2.4859223 -1.9887378,0 -1.9887378,0 0,-2.4859223 z"
       id="path5083"
       inkscape:connector-curvature="0" />
    <path
       style="fill:#babdb6;fill-opacity:1;stroke:none"
       d="m 4.9718446,8.4267608 0,-0.4971845 0.9943689,0 0.9943689,0 0,0.4971845 0,0.4971844 -0.9943689,0 -0.9943689,0 0,-0.4971844 z"
       id="path5085"
       inkscape:connector-curvature="0" />
    <path
       style="fill:#babdb6;fill-opacity:1;stroke:none"
       d="m 4.9718446,10.415499 0,-0.4971848 0.9943689,0 0.9943689,0 0,0.4971848 0,0.497184 -0.9943689,0 -0.9943689,0 0,-0.497184 z"
       id="path5087"
       inkscape:connector-curvature="0" />
    <path
       style="fill:#babdb6;fill-opacity:1;stroke:none"
       d="m 7.9549513,9.4211297 0,-1.4915534 0.4971845,0 0.4971844,0 0,1.4915534 0,1.4915533 -0.4971844,0 -0.4971845,0 0,-1.4915533 z"
       id="path5089"
       inkscape:connector-curvature="0" />
  </g>
  <g
     inkscape:groupmode="layer"
     id="layer9"
     inkscape:label="tile"
     style="display:none">
    <path
       style="fill:#babdb6;fill-opacity:1;stroke:none"
       d="m 0,6.438023 0,-4.4746602 1.9887378,0 1.9887378,0 0,4.4746602 0,4.47466 -1.9887378,0 -1.9887378,0 0,-4.47466 z"
       id="path5154"
       inkscape:connector-curvature="0" />
    <path
       style="fill:#babdb6;fill-opacity:1;stroke:none"
       d="m 4.9718446,2.9577317 0,-0.9943689 1.9887378,0 1.9887378,0 0,0.9943689 0,0.994369 -1.9887378,0 -1.9887378,0 0,-0.994369 z"
       id="path5156"
       inkscape:connector-curvature="0" />
    <path
       style="fill:#babdb6;fill-opacity:1;stroke:none"
       d="m 4.9718446,6.438023 0,-1.4915534 1.9887378,0 1.9887378,0 0,1.4915534 0,1.4915533 -1.9887378,0 -1.9887378,0 0,-1.4915533 z"
       id="path5158"
       inkscape:connector-curvature="0" />
    <path
       style="fill:#babdb6;fill-opacity:1;stroke:none"
       d="m 4.9718446,9.9183142 0,-0.994369 1.9887378,0 1.9887378,0 0,0.994369 0,0.9943688 -1.9887378,0 -1.9887378,0 0,-0.9943688 z"
       id="path5160"
       inkscape:connector-curvature="0" />
  </g>
  <g
     inkscape:groupmode="layer"
     id="layer10"
     inkscape:label="tile bottom"
     style="display:none">
    <path
       style="fill:#babdb6;fill-opacity:1;stroke:none"
       d="m 0,3.9521007 0,-1.9887379 4.4746601,0 4.4746601,0 0,1.9887379 0,1.9887378 -4.4746601,0 -4.4746601,0 0,-1.9887378 z"
       id="path5227"
       inkscape:connector-curvature="0" />
    <path
       style="fill:#babdb6;fill-opacity:1;stroke:none"
       d="m 0,8.9239452 0,-1.9887378 0.99436891,0 0.99436889,0 0,1.9887378 0,1.9887378 -0.99436889,0 L 0,10.912683 0,8.9239452 z"
       id="path5225"
       inkscape:connector-curvature="0" />
    <path
       style="fill:#babdb6;fill-opacity:1;stroke:none"
       d="m 2.9831067,8.9239452 0,-1.9887378 1.4915534,0 1.4915534,0 0,1.9887378 0,1.9887378 -1.4915534,0 -1.4915534,0 0,-1.9887378 z"
       id="path5229"
       inkscape:connector-curvature="0" />
    <path
       style="fill:#babdb6;fill-opacity:1;stroke:none"
       d="m 6.9605824,8.9239452 0,-1.9887378 0.9943689,0 0.9943689,0 0,1.9887378 0,1.9887378 -0.9943689,0 -0.9943689,0 0,-1.9887378 z"
       id="path5231"
       inkscape:connector-curvature="0" />
  </g>
  <g
     inkscape:groupmode="layer"
     id="layer12"
     inkscape:label="tile left"
     style="display:none">
    <path
       style="fill:#babdb6;fill-opacity:1;stroke:none"
       d="m 0,2.9704342 0,-0.9943689 1.9887378,0 1.9887378,0 0,0.9943689 0,0.9943689 -1.9887378,0 -1.9887378,0 0,-0.9943689 z"
       id="path5373"
       inkscape:connector-curvature="0" />
    <path
       style="fill:#babdb6;fill-opacity:1;stroke:none"
       d="m 0,6.4507254 0,-1.4915534 1.9887378,0 1.9887378,0 0,1.4915534 0,1.4915534 -1.9887378,0 -1.9887378,0 0,-1.4915534 z"
       id="path5367"
       inkscape:connector-curvature="0" />
    <path
       style="fill:#babdb6;fill-opacity:1;stroke:none"
       d="m 0,9.9310166 0,-0.9943689 1.9887378,0 1.9887378,0 0,0.9943689 0,0.9943694 -1.9887378,0 -1.9887378,0 0,-0.9943694 z"
       id="path5369"
       inkscape:connector-curvature="0" />
    <path
       style="fill:#babdb6;fill-opacity:1;stroke:none"
       d="m 4.9718446,6.4507254 0,-4.4746601 1.9887378,0 1.9887378,0 0,4.4746601 0,4.4746606 -1.9887378,0 -1.9887378,0 0,-4.4746606 z"
       id="path5371"
       inkscape:connector-curvature="0" />
  </g>
  <g
     inkscape:groupmode="layer"
     id="layer11"
     inkscape:label="tile top"
     style="display:inline">
    <path
       style="fill:#babdb6;fill-opacity:1;stroke:none"
       d="m 0,3.9648031 0,-1.9887378 0.99436891,0 0.99436889,0 0,1.9887378 0,1.9887378 -0.99436889,0 L 0,5.9535409 0,3.9648031 z"
       id="path5298"
       inkscape:connector-curvature="0" />
    <path
       style="fill:#babdb6;fill-opacity:1;stroke:none"
       d="m 0,8.9366477 0,-1.9887378 4.4746601,0 4.4746601,0 0,1.9887378 0,1.9887383 -4.4746601,0 -4.4746601,0 0,-1.9887383 z"
       id="path5296"
       inkscape:connector-curvature="0" />
    <path
       style="fill:#babdb6;fill-opacity:1;stroke:none"
       d="m 2.9831067,3.9648031 0,-1.9887378 1.4915534,0 1.4915534,0 0,1.9887378 0,1.9887378 -1.4915534,0 -1.4915534,0 0,-1.9887378 z"
       id="path5300"
       inkscape:connector-curvature="0" />
    <path
       style="fill:#babdb6;fill-opacity:1;stroke:none"
       d="m 6.9605824,3.9648031 0,-1.9887378 0.9943689,0 0.9943689,0 0,1.9887378 0,1.9887378 -0.9943689,0 -0.9943689,0 0,-1.9887378 z"
       id="path5302"
       inkscape:connector-curvature="0" />
  </g>
</svg>
