<?xml version="1.0" encoding="UTF-8" standalone="no"?>
<!-- Created with Inkscape (http://www.inkscape.org/) -->

<svg
   xmlns:dc="http://purl.org/dc/elements/1.1/"
   xmlns:cc="http://creativecommons.org/ns#"
   xmlns:rdf="http://www.w3.org/1999/02/22-rdf-syntax-ns#"
   xmlns:svg="http://www.w3.org/2000/svg"
   xmlns="http://www.w3.org/2000/svg"
   xmlns:sodipodi="http://sodipodi.sourceforge.net/DTD/sodipodi-0.dtd"
   xmlns:inkscape="http://www.inkscape.org/namespaces/inkscape"
   width="16px"
   height="16px"
   id="svg5986"
   version="1.1"
   inkscape:version="0.48.2 r9819"
   sodipodi:docname="titlebar.svg"
   inkscape:export-filename="/home/invader/.config/awesome/tango-theme/icons/titlebar/close_normal.png"
   inkscape:export-xdpi="90"
   inkscape:export-ydpi="90">
  <defs
     id="defs5988" />
  <sodipodi:namedview
     id="base"
     pagecolor="#ffffff"
     bordercolor="#666666"
     borderopacity="1.0"
     inkscape:pageopacity="0.0"
     inkscape:pageshadow="2"
     inkscape:zoom="22.197802"
     inkscape:cx="3.6487992"
     inkscape:cy="8"
     inkscape:current-layer="layer3"
     showgrid="true"
     inkscape:grid-bbox="true"
     inkscape:document-units="px"
     inkscape:window-width="1918"
     inkscape:window-height="1064"
     inkscape:window-x="0"
     inkscape:window-y="14"
     inkscape:window-maximized="0" />
  <metadata
     id="metadata5991">
    <rdf:RDF>
      <cc:Work
         rdf:about="">
        <dc:format>image/svg+xml</dc:format>
        <dc:type
           rdf:resource="http://purl.org/dc/dcmitype/StillImage" />
        <dc:title></dc:title>
      </cc:Work>
    </rdf:RDF>
  </metadata>
  <g
     inkscape:groupmode="layer"
     id="layer3"
     inkscape:label="close"
     style="display:inline">
    <path
       style="fill:#00ff00;fill-opacity:0;stroke:none;opacity:1"
       d="m 8.8874753,9.9371287 0,-0.9910891 0.9685643,0 0.9685644,0 0,0.9910891 0,0.9910893 -0.9685644,0 -0.9685643,0 0,-0.9910893 z"
       id="path6617"
       inkscape:connector-curvature="0" />
    <path
       style="fill:#00ff00;fill-opacity:0;stroke:none;opacity:1"
       d="m 6.8602475,7.909901 0,-0.9910891 0.9910891,0 0.9910892,0 0,0.9910891 0,0.9910891 -0.9910892,0 -0.9910891,0 0,-0.9910891 z"
       id="path6619"
       inkscape:connector-curvature="0" />
    <path
       style="fill:#00ff00;fill-opacity:0;stroke:none;opacity:1"
       d="m 4.8780693,5.9277228 0,-0.9910892 0.9910891,0 0.9910891,0 0,0.9910892 0,0.9910891 -0.9910891,0 -0.9910891,0 0,-0.9910891 z"
       id="path6621"
       inkscape:connector-curvature="0" />
    <path
       style="fill:#00ff00;fill-opacity:0;stroke:none;opacity:1"
       d="m 8.8874753,5.9277228 0,-0.9910892 0.9685643,0 0.9685644,0 0,0.9910892 0,0.9910891 -0.9685644,0 -0.9685643,0 0,-0.9910891 z"
       id="path6623"
       inkscape:connector-curvature="0" />
    <path
       style="fill:#00ff00;fill-opacity:0;stroke:none;opacity:1"
       d="m 4.8780693,9.9371287 0,-0.9910891 0.9910891,0 0.9910891,0 0,0.9910891 0,0.9910893 -0.9910891,0 -0.9910891,0 0,-0.9910893 z"
       id="path6625"
       inkscape:connector-curvature="0" />
    <path
       style="fill:#00ff00;fill-opacity:0;stroke:none;opacity:1"
       d="m 4.8780693,5.9277228 0,-0.9910892 0.9910891,0 0.9910891,0 0,0.9910892 0,0.9910891 -0.9910891,0 -0.9910891,0 0,-0.9910891 z"
       id="path6627"
       inkscape:connector-curvature="0" />
    <path
       style="fill:none;stroke:none;opacity:1"
       d="m 4.8780693,5.9277228 0,-0.9910892 0.9910891,0 0.9910891,0 0,0.9910892 0,0.9910891 -0.9910891,0 -0.9910891,0 0,-0.9910891 z"
       id="path6629"
       inkscape:connector-curvature="0" />
    <path
       style="fill:#00ff00;fill-opacity:0;stroke:none;opacity:1"
       d="m 4.8780693,5.9277228 0,-0.9910892 0.9910891,0 0.9910891,0 0,0.9910892 0,0.9910891 -0.9910891,0 -0.9910891,0 0,-0.9910891 z"
       id="path6639"
       inkscape:connector-curvature="0" />
    <path
       style="opacity:0.5;fill:#f57900;fill-opacity:1;stroke:none"
       d="m 4.8780693,5.9277228 0,-0.9910892 0.9910891,0 0.9910891,0 0,0.9910892 0,0.9910891 -0.9910891,0 -0.9910891,0 0,-0.9910891 z"
       id="path6643"
       inkscape:connector-curvature="0"
       inkscape:export-filename="/home/invader/.config/awesome/tango-theme/icons/titlebar/path6643.png"
       inkscape:export-xdpi="90"
       inkscape:export-ydpi="90" />
    <path
       style="opacity:0.5;fill:#f57900;fill-opacity:1;stroke:none"
       d="m 6.8602475,7.909901 0,-0.9910891 0.9910891,0 0.9910892,0 0,0.9910891 0,0.9910891 -0.9910892,0 -0.9910891,0 0,-0.9910891 z"
       id="path6647"
       inkscape:connector-curvature="0"
       inkscape:export-filename="/home/invader/.config/awesome/tango-theme/icons/titlebar/path6643.png"
       inkscape:export-xdpi="90"
       inkscape:export-ydpi="90" />
    <path
       style="fill:#f57900;fill-opacity:1;stroke:none;opacity:0.5"
       d="m 8.887475,9.9371287 0,-0.9910891 0.968565,0 0.968564,0 0,0.9910891 0,0.9910893 -0.968564,0 -0.968565,0 0,-0.9910893 z"
       id="path6649"
       inkscape:connector-curvature="0"
       inkscape:export-filename="/home/invader/.config/awesome/tango-theme/icons/titlebar/path6643.png"
       inkscape:export-xdpi="90"
       inkscape:export-ydpi="90" />
    <path
       style="opacity:0.5;fill:#f57900;fill-opacity:1;stroke:none"
       d="m 8.887475,5.9277228 0,-0.9910892 0.968565,0 0.968564,0 0,0.9910892 0,0.9910891 -0.968564,0 -0.968565,0 0,-0.9910891 z"
       id="path6651"
       inkscape:connector-curvature="0"
       inkscape:export-filename="/home/invader/.config/awesome/tango-theme/icons/titlebar/path6643.png"
       inkscape:export-xdpi="90"
       inkscape:export-ydpi="90" />
    <path
       style="opacity:0.5;fill:#f57900;fill-opacity:1;stroke:none"
       d="m 4.8780693,9.9371287 0,-0.9910891 0.9910891,0 0.9910891,0 0,0.9910891 0,0.9910893 -0.9910891,0 -0.9910891,0 0,-0.9910893 z"
       id="path6653"
       inkscape:connector-curvature="0"
       inkscape:export-filename="/home/invader/.config/awesome/tango-theme/icons/titlebar/path6643.png"
       inkscape:export-xdpi="90"
       inkscape:export-ydpi="90" />
  </g>
  <g
     inkscape:groupmode="layer"
     id="layer5"
     inkscape:label="floating_active"
     style="display:none">
    <path
       style="opacity:0.5;fill:#fce94f;fill-opacity:1;stroke:none"
       d="m 4.8780693,7.9234158 0,-0.9685643 0.9910891,0 0.9910891,0 0,0.9685643 0,0.9685644 -0.9910891,0 -0.9910891,0 0,-0.9685644 z"
       id="path6749"
       inkscape:connector-curvature="0" />
    <path
       style="opacity:0.5;fill:#fce94f;fill-opacity:1;stroke:none"
       d="m 6.8602475,5.9187129 0,-0.9910892 0.9910891,0 0.9910894,0 0,0.9910892 0,0.9910891 -0.9910894,0 -0.9910891,0 0,-0.9910891 z"
       id="path6751"
       inkscape:connector-curvature="0" />
    <path
       style="opacity:0.5;fill:#fce94f;fill-opacity:1;stroke:none"
       d="m 8.8874753,7.9234158 0,-0.9685643 0.9685643,0 0.9685644,0 0,0.9685643 0,0.9685644 -0.9685644,0 -0.9685643,0 0,-0.9685644 z"
       id="path6753"
       inkscape:connector-curvature="0" />
    <path
       style="opacity:0.5;fill:#fce94f;fill-opacity:1;stroke:none"
       d="m 6.8602475,9.9281188 0,-0.9910891 0.9910891,0 0.9910892,0 0,0.9910891 0,0.9910892 -0.9910892,0 -0.9910891,0 0,-0.9910892 z"
       id="path6755"
       inkscape:connector-curvature="0" />
  </g>
  <g
     inkscape:groupmode="layer"
     id="layer6"
     inkscape:label="floating_inactive"
     style="display:none">
    <path
       style="opacity:0.5;fill:#d3d7cf;fill-opacity:1;stroke:none"
       d="m 4.8780693,7.909901 0,-0.9910891 0.9910891,0 0.9910891,0 0,0.9910891 0,0.9910891 -0.9910891,0 -0.9910891,0 0,-0.9910891 z"
       id="path7015"
       inkscape:connector-curvature="0" />
    <path
       style="opacity:0.5;fill:#d3d7cf;fill-opacity:1;stroke:none"
       d="m 6.8602475,9.9371287 0,-0.9910891 0.9910891,0 0.9910892,0 0,0.9910891 0,0.9910893 -0.9910892,0 -0.9910891,0 0,-0.9910893 z"
       id="path7017"
       inkscape:connector-curvature="0" />
    <path
       style="opacity:0.5;fill:#d3d7cf;fill-opacity:1;stroke:none"
       d="m 6.8602475,5.9277228 0,-0.9910892 0.9910891,0 0.9910892,0 0,0.9910892 0,0.9910891 -0.9910892,0 -0.9910891,0 0,-0.9910891 z"
       id="path7019"
       inkscape:connector-curvature="0" />
    <path
       style="opacity:0.5;fill:#d3d7cf;fill-opacity:1;stroke:none"
       d="m 8.887475,7.909901 0,-0.9910891 0.968565,0 0.968564,0 0,0.9910891 0,0.9910891 -0.968564,0 -0.968565,0 0,-0.9910891 z"
       id="path7021"
       inkscape:connector-curvature="0" />
  </g>
  <g
     inkscape:groupmode="layer"
     id="layer1"
     inkscape:label="maximized_active"
     style="display:none">
    <path
       style="opacity:0.5;fill:#fce94f;fill-opacity:1;stroke:none"
       d="m 4.8741458,5.9277228 0,-0.9910892 0.9910891,0 0.9910891,0 0,0.9910892 0,0.9910891 -0.9910891,0 -0.9910891,0 0,-0.9910891 z"
       id="path3868"
       inkscape:connector-curvature="0" />
    <path
       style="opacity:0.5;fill:#fce94f;fill-opacity:1;stroke:none"
       d="m 8.883552,5.9277228 0,-0.9910892 0.991089,0 0.991089,0 0,0.9910892 0,0.9910891 -0.991089,0 -0.991089,0 0,-0.9910891 z"
       id="path3870"
       inkscape:connector-curvature="0" />
    <path
       style="opacity:0.5;fill:#fce94f;fill-opacity:1;stroke:none"
       d="m 8.8835517,9.9371287 0,-0.9910891 0.9910892,0 0.9910891,0 0,0.9910891 0,0.9910893 -0.9910891,0 -0.9910892,0 0,-0.9910893 z"
       id="path3872"
       inkscape:connector-curvature="0" />
  </g>
  <g
     inkscape:groupmode="layer"
     id="layer2"
     inkscape:label="maximized_inactive"
     style="display:none">
    <path
       style="opacity:0.5;fill:#d3d7cf;fill-opacity:1;stroke:none;display:inline"
       d="m 5.0042079,5.9952971 0,-0.9910892 0.9910891,0 0.9910891,0 0,0.9910892 0,0.9910891 -0.9910891,0 -0.9910891,0 0,-0.9910891 z"
       id="path3868-2"
       inkscape:connector-curvature="0" />
    <path
       style="opacity:0.5;fill:#d3d7cf;fill-opacity:1;stroke:none;display:inline"
       d="m 9.0136138,5.9952971 0,-0.9910892 0.9910892,0 0.991089,0 0,0.9910892 0,0.9910891 -0.991089,0 -0.9910892,0 0,-0.9910891 z"
       id="path3870-6"
       inkscape:connector-curvature="0" />
    <path
       style="opacity:0.5;fill:#d3d7cf;fill-opacity:1;stroke:none;display:inline"
       d="m 9.0136138,10.004703 0,-0.9910891 0.9910892,0 0.991089,0 0,0.9910891 0,0.991089 -0.991089,0 -0.9910892,0 0,-0.991089 z"
       id="path3872-8"
       inkscape:connector-curvature="0" />
  </g>
  <g
     inkscape:groupmode="layer"
     id="layer4"
     inkscape:label="ontop_active"
     style="display:none">
    <path
       style="opacity:0.5;fill:#fce94f;fill-opacity:1;stroke:none"
       d="m 4.8741458,8.9235149 0,-0.9685644 0.9910891,0 0.9910891,0 0,0.9685644 0,0.9685643 -0.9910891,0 -0.9910891,0 0,-0.9685643 z"
       id="path4125"
       inkscape:connector-curvature="0" />
    <path
       style="opacity:0.5;fill:#fce94f;fill-opacity:1;stroke:none"
       d="m 6.9013735,6.9188119 0,-0.9910891 0.9910891,0 0.9910891,0 0,0.9910891 0,0.9910891 -0.9910891,0 -0.9910891,0 0,-0.9910891 z"
       id="path4127"
       inkscape:connector-curvature="0" />
    <path
       style="opacity:0.5;fill:#fce94f;fill-opacity:1;stroke:none"
       d="m 8.883552,8.9235149 0,-0.9685644 0.991089,0 0.991089,0 0,0.9685644 0,0.9685643 -0.991089,0 -0.991089,0 0,-0.9685643 z"
       id="path4129"
       inkscape:connector-curvature="0" />
  </g>
  <g
     inkscape:groupmode="layer"
     id="layer7"
     inkscape:label="ontop_inactive"
     style="display:none">
    <path
       style="opacity:0.5;fill:#d3d7cf;fill-opacity:1;stroke:none;display:inline"
       d="m 5.0042075,9.0136139 0,-0.9685644 0.991089,0 0.99109,0 0,0.9685644 0,0.9685643 -0.99109,0 -0.991089,0 0,-0.9685643 z"
       id="path4125-8"
       inkscape:connector-curvature="0" />
    <path
       style="opacity:0.5;fill:#d3d7cf;fill-opacity:1;stroke:none;display:inline"
       d="m 7.0314355,7.0089109 0,-0.9910891 0.991089,0 0.991089,0 0,0.9910891 0,0.9910891 -0.991089,0 -0.991089,0 0,-0.9910891 z"
       id="path4127-9"
       inkscape:connector-curvature="0" />
    <path
       style="opacity:0.5;fill:#d3d7cf;fill-opacity:1;stroke:none;display:inline"
       d="m 9.0136145,9.0136139 0,-0.9685644 0.9910885,0 0.991089,0 0,0.9685644 0,0.9685643 -0.991089,0 -0.9910885,0 0,-0.9685643 z"
       id="path4129-8"
       inkscape:connector-curvature="0" />
  </g>
  <g
     inkscape:groupmode="layer"
     id="layer8"
     inkscape:label="sticky_active"
     style="display:none">
    <path
       style="opacity:0.5;fill:#fce94f;fill-opacity:1;stroke:none"
       d="m 4.8741458,9.9371287 0,-0.9910891 0.9910891,0 0.9910891,0 0,0.9910891 0,0.9910893 -0.9910891,0 -0.9910891,0 0,-0.9910893 z"
       id="path4233"
       inkscape:connector-curvature="0" />
    <path
       style="opacity:0.5;fill:#fce94f;fill-opacity:1;stroke:none"
       d="m 8.8835517,9.9371287 0,-0.9910891 0.9910892,0 0.9910891,0 0,0.9910891 0,0.9910893 -0.9910891,0 -0.9910892,0 0,-0.9910893 z"
       id="path4235"
       inkscape:connector-curvature="0" />
    <path
       style="opacity:0.5;fill:#fce94f;fill-opacity:1;stroke:none"
       d="m 4.8741458,5.9277228 0,-0.9910892 0.9910891,0 0.9910891,0 0,0.9910892 0,0.9910891 -0.9910891,0 -0.9910891,0 0,-0.9910891 z"
       id="path4237"
       inkscape:connector-curvature="0" />
    <path
       style="opacity:0.5;fill:#fce94f;fill-opacity:1;stroke:none"
       d="m 8.8835517,5.9277228 0,-0.9910892 0.9910892,0 0.9910891,0 0,0.9910892 0,0.9910891 -0.9910891,0 -0.9910892,0 0,-0.9910891 z"
       id="path4239"
       inkscape:connector-curvature="0" />
  </g>
  <g
     inkscape:groupmode="layer"
     id="layer9"
     inkscape:label="sticky_inactive"
     style="display:none">
    <path
       style="opacity:0.5;fill:#d3d7cf;fill-opacity:1;stroke:none;display:inline"
       d="m 5.004208,10.004703 0,-0.9910892 0.991089,0 0.991089,0 0,0.9910892 0,0.991089 -0.991089,0 -0.991089,0 0,-0.991089 z"
       id="path4233-4"
       inkscape:connector-curvature="0" />
    <path
       style="opacity:0.5;fill:#d3d7cf;fill-opacity:1;stroke:none;display:inline"
       d="m 9.013614,10.004703 0,-0.9910892 0.991089,0 0.991089,0 0,0.9910892 0,0.991089 -0.991089,0 -0.991089,0 0,-0.991089 z"
       id="path4235-3"
       inkscape:connector-curvature="0" />
    <path
       style="opacity:0.5;fill:#d3d7cf;fill-opacity:1;stroke:none;display:inline"
       d="m 5.004208,5.995297 0,-0.9910892 0.991089,0 0.991089,0 0,0.9910892 0,0.9910891 -0.991089,0 -0.991089,0 0,-0.9910891 z"
       id="path4237-6"
       inkscape:connector-curvature="0" />
    <path
       style="opacity:0.5;fill:#d3d7cf;fill-opacity:1;stroke:none;display:inline"
       d="m 9.013614,5.995297 0,-0.9910892 0.991089,0 0.991089,0 0,0.9910892 0,0.9910891 -0.991089,0 -0.991089,0 0,-0.9910891 z"
       id="path4239-4"
       inkscape:connector-curvature="0" />
  </g>
</svg>
